# xmcd
#
# Track frame offsets:
#	150
#	14070
#	28143
#	44112
#	56365
#	64729
#	79578
#	93688
#	107016
#	120734
#	136423
#	153433
#	168161
#	187798
#	211191
#	232568
#	257888
#	278851
#	303016
#	334086
#
# Disc length: 4812 seconds
#
# Revision: 0
# Processed by: cddbd v1.5.2PL0 Copyright (c) Steve Scherf et al.
# Submitted via: SynApp - FreeCDDB Version: 2.3
#
DISCID=0d12ca14
DTITLE=Dolly Parton/Delaney and Bonnie and Friends - Dolly Parton/On Tour With Eric Clapton
DYEAR=2000
DGENRE=Country
TTITLE0=Dolly Parton - Joshua
TTITLE1=Dolly Parton - Coat Of Many Colors
TTITLE2=Dolly Parton - My Blue Ridge Mountion Boy
TTITLE3=Dolly Parton - Jolene
TTITLE4=Dolly Parton and Porter Wagoner - Burning The Midnight Oil
TTITLE5=Dolly Parton - The Seeker
TTITLE6=Dolly Parton - Two Doors Down
TTITLE7=Dolly Parton - Here You Come Again
TTITLE8=Dolly Parton - 9 To 5
TTITLE9=Dolly Parton - Old Flames Can't Hold A Candle To You
TTITLE10=Dolly Parton - Single Women
TTITLE11=Dolly Parton - Potential New Boyfriend
TTITLE12=Delaney and Bonnie and Friends - Things Get Better
TTITLE13=Delaney and Bonnie and Friends - Poor Elijah/Tribute To Johnson [Medley]
TTITLE14=Delaney and Bonnie and Friends - Only You Know And I Know
TTITLE15=Delaney and Bonnie and Friends - I Don't Want To Discuss It
TTITLE16=Delaney and Bonnie and Friends - That's What My Man Is For
TTITLE17=Delaney and Bonnie and Friends - Where There's A Will There's A Way
TTITLE18=Delaney and Bonnie and Friends - Coming Home
TTITLE19=Delaney and Bonnie and Friends - Little Richard Medley
EXTD=/1979
EXTT0=
EXTT1=
EXTT2=
EXTT3=
EXTT4=
EXTT5=
EXTT6=
EXTT7=
EXTT8=
EXTT9=
EXTT10=
EXTT11=
EXTT12=
EXTT13=
EXTT14=
EXTT15=
EXTT16=
EXTT17=
EXTT18=
EXTT19=
PLAYORDER=
